<svg width="125" height="40" viewBox="0 0 125 40" fill="none" xmlns="http://www.w3.org/2000/svg">
<rect width="40" height="40" rx="8" fill="white"/>
<path fill-rule="evenodd" clip-rule="evenodd" d="M27.3097 15.7C27.0354 16.1789 26.8168 16.6496 26.638 17.0996C26.6486 16.951 26.6539 16.801 26.6539 16.6496C26.6539 14.4449 25.6522 12.4755 24.098 11.2121C25.2945 12.4342 26.1053 14.1228 26.2961 15.8693C26.3014 15.9078 26.3054 15.9463 26.3081 15.9849C26.3107 16.0234 26.3147 16.0633 26.32 16.1046C26.3226 16.1459 26.3253 16.1858 26.3279 16.2243C26.3359 16.3647 26.3399 16.5065 26.3399 16.6496C26.3399 20.2869 23.5018 23.2348 20 23.2348C16.4982 23.2348 13.6601 20.2869 13.6601 16.6496C13.6601 16.5065 13.6641 16.3647 13.6721 16.2243C13.6747 16.1858 13.6774 16.1459 13.68 16.1046C13.6853 16.0633 13.6893 16.0234 13.6919 15.9849C13.6946 15.9463 13.6986 15.9078 13.7039 15.8693C13.8947 14.1228 14.7055 12.4342 15.902 11.2121C14.3478 12.4755 13.3461 14.4449 13.3461 16.6496C13.3461 16.801 13.3514 16.951 13.362 17.0996C13.1832 16.6496 12.9646 16.1789 12.6903 15.7C12.3008 15.0229 12.1259 14.2302 12.2292 13.4457C12.579 10.8281 15.6237 10.2873 16.2915 8C16.2915 8 16.8519 8.87941 17.2812 10.118C17.3051 10.1813 17.3276 10.246 17.3488 10.3121C17.3806 10.4139 17.4124 10.5171 17.4442 10.6217C17.5436 10.9768 17.631 11.3525 17.6906 11.7365C17.9569 13.5407 17.5913 15.5803 15.2501 16.8601C15.2501 16.8601 15.103 17.079 15.0672 17.6116C15.0156 18.3134 15.2024 19.0153 15.572 19.6098C16.5101 21.1209 18.1438 22.1201 20 22.1201C21.8562 22.1201 23.4899 21.1209 24.428 19.6098C24.7976 19.0153 24.9844 18.3134 24.9328 17.6116C24.897 17.079 24.7499 16.8601 24.7499 16.8601C22.4087 15.5803 22.0431 13.5407 22.3094 11.7365C22.369 11.3525 22.4564 10.9768 22.5558 10.6217C22.5876 10.5171 22.6194 10.4139 22.6512 10.3121C22.6724 10.246 22.6949 10.1813 22.7188 10.118C23.1481 8.87941 23.7085 8 23.7085 8C24.3763 10.2873 27.421 10.8281 27.7708 13.4457C27.8741 14.2302 27.6992 15.0229 27.3097 15.7ZM17.6906 28.2635C17.631 28.6475 17.5436 29.0232 17.4442 29.3783C17.4124 29.4829 17.3806 29.5847 17.3488 29.6838C17.3276 29.7499 17.3051 29.8159 17.2812 29.882C16.8519 31.1206 16.2915 32 16.2915 32C15.6237 29.7127 12.579 29.1719 12.2292 26.5543C12.1259 25.7698 12.3008 24.9771 12.6903 24.2959C12.9646 23.8211 13.1832 23.3504 13.362 22.9004C13.3514 23.049 13.3461 23.199 13.3461 23.3504C13.3461 25.5551 14.3478 27.5204 15.902 28.7879C14.7055 27.5658 13.8947 25.873 13.7039 24.1307C13.6986 24.0922 13.6946 24.0537 13.6919 24.0151C13.6893 23.9766 13.6853 23.9367 13.68 23.8954C13.6774 23.8541 13.6747 23.8142 13.6721 23.7757C13.6641 23.6353 13.6601 23.4935 13.6601 23.3504C13.6601 22.2563 13.9145 21.2283 14.3677 20.3241C14.5982 20.7039 14.8605 21.0549 15.1547 21.381C15.0712 21.7072 15.0434 22.0499 15.0672 22.3884C15.103 22.921 15.2501 23.1399 15.2501 23.1399C17.5913 24.4156 17.9569 26.4593 17.6906 28.2635ZM20 17.8799C18.422 17.8799 17.007 18.6024 16.0411 19.742C15.9695 19.6429 15.9006 19.5397 15.8344 19.4323C15.6913 19.2052 15.58 18.9575 15.5045 18.7057C16.6532 17.5042 18.2431 16.7652 20 16.7652C21.7569 16.7652 23.3468 17.5042 24.4955 18.7057C24.42 18.9575 24.3087 19.2052 24.1656 19.4323C24.0994 19.5397 24.0305 19.6429 23.9589 19.742C22.993 18.6024 21.578 17.8799 20 17.8799ZM27.7708 26.5543C27.421 29.1719 24.3763 29.7127 23.7085 32C23.7085 32 23.1481 31.1206 22.7188 29.882C22.6949 29.8159 22.6724 29.7499 22.6512 29.6838C22.6194 29.5847 22.5876 29.4829 22.5558 29.3783C22.4564 29.0232 22.369 28.6475 22.3094 28.2635C22.0431 26.4593 22.4087 24.4156 24.7499 23.1399C24.7499 23.1399 24.897 22.921 24.9328 22.3884C24.9566 22.0499 24.9288 21.7072 24.8453 21.381C25.1395 21.0549 25.4018 20.7039 25.6323 20.3241C26.0855 21.2283 26.3399 22.2563 26.3399 23.3504C26.3399 23.4935 26.3359 23.6353 26.3279 23.7757C26.3253 23.8142 26.3226 23.8541 26.32 23.8954C26.3147 23.9367 26.3107 23.9766 26.3081 24.0151C26.3054 24.0537 26.3014 24.0922 26.2961 24.1307C26.1053 25.873 25.2945 27.5658 24.098 28.7879C25.6522 27.5204 26.6539 25.5551 26.6539 23.3504C26.6539 23.199 26.6486 23.049 26.638 22.9004C26.8168 23.3504 27.0354 23.8211 27.3097 24.2959C27.6992 24.9771 27.8741 25.7698 27.7708 26.5543Z" fill="#0B0A09"/>
<path d="M57.3681 25H55.8141V20.59H50.6061V25H49.0521V15.032H50.6061V19.26H55.8141V15.032H57.3681V25ZM61.9882 25.14C59.6922 25.14 58.4182 23.684 58.4182 21.388C58.4182 19.162 59.6222 17.636 61.9042 17.636C64.1862 17.636 65.3902 19.19 65.3902 21.262C65.3902 21.402 65.3762 21.528 65.3622 21.668H59.9022C59.9442 23.376 60.7562 24.118 61.9882 24.118C63.0102 24.118 63.6542 23.586 63.8782 22.76H65.2362C64.9142 24.23 63.8642 25.14 61.9882 25.14ZM61.9042 18.658C60.7842 18.658 60.0562 19.33 59.9022 20.688H63.9062C63.7522 19.33 63.0242 18.658 61.9042 18.658ZM67.8208 25H66.3368V17.776H67.7508V19.442C68.1288 18.168 68.7728 17.692 69.8228 17.692C70.0188 17.692 70.2988 17.734 70.4808 17.776V19.078L69.7668 19.05C68.5908 19.05 67.8208 19.96 67.8208 21.57V25ZM72.7798 25H71.2958V17.776H72.7798V25ZM72.0378 16.516C71.4638 16.516 71.1558 16.18 71.1558 15.732C71.1558 15.284 71.4638 14.934 72.0378 14.934C72.5978 14.934 72.9198 15.284 72.9198 15.732C72.9198 16.18 72.5978 16.516 72.0378 16.516ZM76.6725 25.07C75.1605 25.07 74.6285 24.622 74.6285 23.152V18.84H73.4525V17.776H74.6285V15.592H76.1125V17.776H77.7785V18.84H76.1125V23.194C76.1125 23.824 76.3505 24.006 77.0085 24.006L77.7785 23.992V25C77.4845 25.028 76.9665 25.07 76.6725 25.07ZM80.9807 25.14C79.3007 25.14 78.3907 24.3 78.3907 22.956C78.3907 21.878 79.0487 21.024 80.8407 20.87L82.2407 20.758C83.0947 20.674 83.3467 20.478 83.3467 20.016C83.3467 19.19 82.8707 18.7 81.8207 18.7C80.8407 18.7 80.3087 19.12 80.2387 20.016H78.7827C78.7827 18.56 79.6787 17.636 81.8067 17.636C83.9207 17.636 84.8307 18.56 84.8307 20.016V23.152C84.8307 24.132 84.9147 24.762 85.0547 25H83.7247C83.5007 24.72 83.4167 24.426 83.4167 23.754C83.0247 24.678 82.2267 25.14 80.9807 25.14ZM81.3867 24.118C82.6607 24.118 83.3467 23.124 83.3467 21.934V21.318C83.1927 21.514 82.8007 21.626 82.2407 21.668L81.3167 21.752C80.2807 21.836 79.8747 22.27 79.8747 22.858C79.8747 23.6 80.3227 24.118 81.3867 24.118ZM88.9333 24.72C86.9873 24.72 85.7833 23.292 85.7833 21.178C85.7833 19.064 86.9873 17.636 88.9333 17.636C90.1933 17.636 90.9633 18.182 91.3693 19.12V17.776H92.7833V24.468C92.7833 26.708 91.5793 27.884 89.3253 27.884C87.2253 27.884 86.1753 26.862 86.1753 25.336H87.5613C87.6593 26.344 88.3033 26.89 89.3953 26.89C90.5993 26.89 91.2993 26.246 91.2993 24.846V23.348C90.8933 24.244 90.0953 24.72 88.9333 24.72ZM89.2833 23.656C90.4733 23.656 91.2993 22.816 91.2993 21.178C91.2993 19.554 90.4733 18.7 89.2833 18.7C88.0793 18.7 87.2673 19.554 87.2673 21.178C87.2673 22.816 88.0793 23.656 89.2833 23.656ZM97.3064 25.14C95.0104 25.14 93.7364 23.684 93.7364 21.388C93.7364 19.162 94.9404 17.636 97.2224 17.636C99.5044 17.636 100.708 19.19 100.708 21.262C100.708 21.402 100.694 21.528 100.68 21.668H95.2204C95.2624 23.376 96.0744 24.118 97.3064 24.118C98.3284 24.118 98.9724 23.586 99.1964 22.76H100.554C100.232 24.23 99.1824 25.14 97.3064 25.14ZM97.2224 18.658C96.1024 18.658 95.3744 19.33 95.2204 20.688H99.2244C99.0704 19.33 98.3424 18.658 97.2224 18.658ZM106.079 25.14C102.999 25.14 101.375 23.054 101.375 20.016C101.375 16.978 103.069 14.892 106.219 14.892C109.075 14.892 110.615 16.572 110.615 18.364H109.229C108.991 17.132 107.983 16.166 106.219 16.166C104.049 16.166 102.929 17.552 102.929 20.016C102.929 22.48 104.049 23.866 106.219 23.866C108.291 23.866 109.131 22.662 109.215 20.772H106.485V19.694H110.699V25H109.537L109.411 23.138C108.991 24.384 107.969 25.14 106.079 25.14ZM113.375 25H111.891V17.776H113.375V25ZM112.633 16.516C112.059 16.516 111.751 16.18 111.751 15.732C111.751 15.284 112.059 14.934 112.633 14.934C113.193 14.934 113.515 15.284 113.515 15.732C113.515 16.18 113.193 16.516 112.633 16.516ZM116.092 25H114.608V15.032H116.092V25ZM120.195 25.14C118.249 25.14 117.045 23.754 117.045 21.388C117.045 19.022 118.249 17.636 120.195 17.636C121.357 17.636 122.155 18.112 122.561 19.008V15.032H124.045V25H122.631V23.67C122.225 24.594 121.455 25.14 120.195 25.14ZM120.545 24.006C121.735 24.006 122.561 23.208 122.561 21.388C122.561 19.582 121.735 18.77 120.545 18.77C119.341 18.77 118.529 19.582 118.529 21.388C118.529 23.208 119.341 24.006 120.545 24.006Z" fill="white"/>
</svg>
